<svg id="Layer_1" data-name="Layer 1" xmlns="http://www.w3.org/2000/svg" viewBox="0 0 122.88 120.77"><defs><style>.cls-1{fill:#ef4136;}.cls-2{fill:#1a1a1a;}</style></defs><title>two-years</title><path class="cls-1" d="M23.41,84.19l1.68,6.73h.21L27,84.19h6.76L28.27,98.11v5.2H22.15v-5.2l-5.5-13.92ZM48,96.09H41.89v2.33h7.49v4.89H35.77V84.19H49.23l-.77,4.9H41.89v2.57H48v4.43Zm9,7.22H50.54l5-19.12H65l5,19.12H63.45l-.7-3h-5l-.7,3Zm3.06-13.24L58.8,95.42h2.82l-1.23-5.35ZM88.2,103.31H81.47L79,97.62H77.65v5.69H71.53V84.19h9.64q6.57,0,6.57,6.7,0,4.59-2.84,6.06l3.3,6.36ZM77.65,89.09v3.82h1.41a4,4,0,0,0,1.6-.23q.51-.23.51-1.05V90.37q0-.83-.51-1.05a4,4,0,0,0-1.6-.23ZM90,103l.85-5a21.1,21.1,0,0,0,5.07.7,29.07,29.07,0,0,0,3.62-.18V96.92l-2.75-.24q-3.73-.34-5.12-1.79a6,6,0,0,1-1.4-4.3q0-3.91,1.7-5.39t5.77-1.47a32.31,32.31,0,0,1,7.34.77l-.76,4.89a30.78,30.78,0,0,0-4.56-.45,23.84,23.84,0,0,0-2.91.15v1.5l2.2.21c2.67.27,4.52.9,5.54,1.91a5.67,5.67,0,0,1,1.53,4.21,9,9,0,0,1-.52,3.26,5.59,5.59,0,0,1-1.24,2,4.69,4.69,0,0,1-2,1,11.92,11.92,0,0,1-2.31.45c-.67,0-1.55.07-2.65.07A32.28,32.28,0,0,1,90,103Z"/><path class="cls-2" d="M82.68,4.21C82.68,1.87,85,0,87.84,0S93,1.91,93,4.21v18.5c0,2.34-2.3,4.21-5.16,4.21s-5.16-1.9-5.16-4.21V4.21ZM50,46.1l-1.34-8.38a41.48,41.48,0,0,1,13-2.13c1.72,0,3.16,0,4.31.17a14.53,14.53,0,0,1,3.59.84,7.33,7.33,0,0,1,3,1.86C74.12,40.25,75,43,75,46.72s-1,6.45-2.9,8.21-6,3.78-12.19,6.07v1.57H74.43v9H47.93v-7a16.67,16.67,0,0,1,1.09-6,12.32,12.32,0,0,1,3.25-3.94A16,16,0,0,1,56,52.12q2.34-1.18,4.44-2.22c1.39-.7,2.52-1.27,3.38-1.72v-3a35.51,35.51,0,0,0-4.29-.29A38.4,38.4,0,0,0,50,46.1ZM29.67,4.21C29.67,1.87,32,0,34.83,0S40,1.91,40,4.21v18.5c0,2.34-2.3,4.21-5.16,4.21s-5.16-1.9-5.16-4.21V4.21ZM6.76,111.3a2.66,2.66,0,0,0,.76,1.87,2.56,2.56,0,0,0,1.87.75h104a2.65,2.65,0,0,0,1.86-.75,2.56,2.56,0,0,0,.75-1.87v-91a2.56,2.56,0,0,0-2.57-2.58h-8.33c-1.59,0-2.86-2.35-2.86-3.94a2.85,2.85,0,0,1,2.86-2.86h9.41a8.4,8.4,0,0,1,8.34,8.34v93.21a8.4,8.4,0,0,1-8.34,8.34H8.34A8.4,8.4,0,0,1,0,112.43V19.22a8.29,8.29,0,0,1,2.46-5.88,8.35,8.35,0,0,1,5.88-2.46H18.43a2.85,2.85,0,0,1,2.86,2.86c0,1.59-1.27,3.94-2.86,3.94h-9a2.69,2.69,0,0,0-1.87.75A2.59,2.59,0,0,0,6.8,20.3c0,28.81,0,62.06,0,91ZM51.55,17.64c-1.59,0-2.86-2.35-2.86-3.94a2.85,2.85,0,0,1,2.86-2.86H70.76a2.85,2.85,0,0,1,2.86,2.86c0,1.59-1.27,3.94-2.86,3.94Z"/></svg>